<svg id="mermaid" width="100%" xmlns="http://www.w3.org/2000/svg" xmlns:xlink="http://www.w3.org/1999/xlink" height="376" style="max-width: 567.140625px;" viewBox="-20 -20 567.140625 376"><style>#mermaid{font-family:"trebuchet ms",verdana,arial,sans-serif;font-size:16px;fill:#333;}#mermaid .error-icon{fill:#552222;}#mermaid .error-text{fill:#552222;stroke:#552222;}#mermaid .edge-thickness-normal{stroke-width:2px;}#mermaid .edge-thickness-thick{stroke-width:3.5px;}#mermaid .edge-pattern-solid{stroke-dasharray:0;}#mermaid .edge-pattern-dashed{stroke-dasharray:3;}#mermaid .edge-pattern-dotted{stroke-dasharray:2;}#mermaid .marker{fill:#333333;stroke:#333333;}#mermaid .marker.cross{stroke:#333333;}#mermaid svg{font-family:"trebuchet ms",verdana,arial,sans-serif;font-size:16px;}#mermaid g.classGroup text{fill:#9370DB;fill:#131300;stroke:none;font-family:"trebuchet ms",verdana,arial,sans-serif;font-size:10px;}#mermaid g.classGroup text .title{font-weight:bolder;}#mermaid .classTitle{font-weight:bolder;}#mermaid .node rect,#mermaid .node circle,#mermaid .node ellipse,#mermaid .node polygon,#mermaid .node path{fill:#ECECFF;stroke:#9370DB;stroke-width:1px;}#mermaid .divider{stroke:#9370DB;stroke:1;}#mermaid g.clickable{cursor:pointer;}#mermaid g.classGroup rect{fill:#ECECFF;stroke:#9370DB;}#mermaid g.classGroup line{stroke:#9370DB;stroke-width:1;}#mermaid .classLabel .box{stroke:none;stroke-width:0;fill:#ECECFF;opacity:0.5;}#mermaid .classLabel .label{fill:#9370DB;font-size:10px;}#mermaid .relation{stroke:#333333;stroke-width:1;fill:none;}#mermaid .dashed-line{stroke-dasharray:3;}#mermaid #compositionStart,#mermaid .composition{fill:#333333 !important;stroke:#333333 !important;stroke-width:1;}#mermaid #compositionEnd,#mermaid .composition{fill:#333333 !important;stroke:#333333 !important;stroke-width:1;}#mermaid #dependencyStart,#mermaid .dependency{fill:#333333 !important;stroke:#333333 !important;stroke-width:1;}#mermaid #dependencyStart,#mermaid .dependency{fill:#333333 !important;stroke:#333333 !important;stroke-width:1;}#mermaid #extensionStart,#mermaid .extension{fill:#333333 !important;stroke:#333333 !important;stroke-width:1;}#mermaid #extensionEnd,#mermaid .extension{fill:#333333 !important;stroke:#333333 !important;stroke-width:1;}#mermaid #aggregationStart,#mermaid .aggregation{fill:#ECECFF !important;stroke:#333333 !important;stroke-width:1;}#mermaid #aggregationEnd,#mermaid .aggregation{fill:#ECECFF !important;stroke:#333333 !important;stroke-width:1;}#mermaid .edgeTerminals{font-size:11px;}#mermaid:root{--mermaid-font-family:"trebuchet ms",verdana,arial,sans-serif;}#mermaid class{fill:apa;}</style><g></g><defs><marker id="extensionStart" class="extension" refX="0" refY="7" markerWidth="190" markerHeight="240" orient="auto"><path d="M 1,7 L18,13 V 1 Z"></path></marker></defs><defs><marker id="extensionEnd" refX="19" refY="7" markerWidth="20" markerHeight="28" orient="auto"><path d="M 1,1 V 13 L18,7 Z"></path></marker></defs><defs><marker id="compositionStart" class="extension" refX="0" refY="7" markerWidth="190" markerHeight="240" orient="auto"><path d="M 18,7 L9,13 L1,7 L9,1 Z"></path></marker></defs><defs><marker id="compositionEnd" refX="19" refY="7" markerWidth="20" markerHeight="28" orient="auto"><path d="M 18,7 L9,13 L1,7 L9,1 Z"></path></marker></defs><defs><marker id="aggregationStart" class="extension" refX="0" refY="7" markerWidth="190" markerHeight="240" orient="auto"><path d="M 18,7 L9,13 L1,7 L9,1 Z"></path></marker></defs><defs><marker id="aggregationEnd" refX="19" refY="7" markerWidth="20" markerHeight="28" orient="auto"><path d="M 18,7 L9,13 L1,7 L9,1 Z"></path></marker></defs><defs><marker id="dependencyStart" class="extension" refX="0" refY="7" markerWidth="190" markerHeight="240" orient="auto"><path d="M 5,7 L9,13 L1,7 L9,1 Z"></path></marker></defs><defs><marker id="dependencyEnd" refX="19" refY="7" markerWidth="20" markerHeight="28" orient="auto"><path d="M 18,7 L9,13 L14,7 L9,1 Z"></path></marker></defs><g id="classid-Class01-0" class="classGroup" transform="translate(11.6640625,0 )"><rect x="0" y="0" width="58.578125" height="68" class=" "></rect><text y="15" x="0"><tspan class="title" x="11.921875">Class01</tspan></text><line x1="0" y1="21" y2="21" x2="58.578125"></line><text x="5" y="31" fill="white" class="classText"><tspan x="5">int chimp</tspan><tspan x="5" dy="10">int gorilla</tspan></text><line x1="0" y1="47" y2="47" x2="58.578125"></line><text x="5" y="62" fill="white" class="classText"><tspan x="5">size()</tspan></text></g><g id="classid-AveryLongClass-1" class="classGroup" transform="translate(0,132 )"><rect x="0" y="0" width="81.90625" height="30" class=" "></rect><text y="15" x="0"><tspan class="title" x="5">AveryLongClass</tspan></text><line x1="0" y1="21" y2="21" x2="81.90625"></line><text x="5" y="31" fill="white" class="classText"></text><line x1="0" y1="26" y2="26" x2="81.90625"></line><text x="5" y="41" fill="white" class="classText"></text></g><g id="classid-Class03-2" class="classGroup" transform="translate(131.90625,19 )"><rect x="0" y="0" width="44.875" height="30" class=" "></rect><text y="15" x="0"><tspan class="title" x="5">Class03</tspan></text><line x1="0" y1="21" y2="21" x2="44.875"></line><text x="5" y="31" fill="white" class="classText"></text><line x1="0" y1="26" y2="26" x2="44.875"></line><text x="5" y="41" fill="white" class="classText"></text></g><g id="classid-Class04-3" class="classGroup" transform="translate(131.90625,132 )"><rect x="0" y="0" width="44.875" height="30" class=" "></rect><text y="15" x="0"><tspan class="title" x="5">Class04</tspan></text><line x1="0" y1="21" y2="21" x2="44.875"></line><text x="5" y="31" fill="white" class="classText"></text><line x1="0" y1="26" y2="26" x2="44.875"></line><text x="5" y="41" fill="white" class="classText"></text></g><g id="classid-Class05-4" class="classGroup" transform="translate(226.78125,19 )"><rect x="0" y="0" width="44.875" height="30" class=" "></rect><text y="15" x="0"><tspan class="title" x="5">Class05</tspan></text><line x1="0" y1="21" y2="21" x2="44.875"></line><text x="5" y="31" fill="white" class="classText"></text><line x1="0" y1="26" y2="26" x2="44.875"></line><text x="5" y="41" fill="white" class="classText"></text></g><g id="classid-Class06-5" class="classGroup" transform="translate(226.78125,132 )"><rect x="0" y="0" width="44.875" height="30" class=" "></rect><text y="15" x="0"><tspan class="title" x="5">Class06</tspan></text><line x1="0" y1="21" y2="21" x2="44.875"></line><text x="5" y="31" fill="white" class="classText"></text><line x1="0" y1="26" y2="26" x2="44.875"></line><text x="5" y="41" fill="white" class="classText"></text></g><g id="classid-Class07-6" class="classGroup" transform="translate(413.78125,118 )"><rect x="0" y="0" width="113.359375" height="58" class=" "></rect><text y="15" x="0"><tspan class="title" x="39.2421875">Class07</tspan></text><line x1="0" y1="21" y2="21" x2="113.359375"></line><text x="5" y="31" fill="white" class="classText"><tspan x="5">Object[] elementData</tspan></text><line x1="0" y1="37" y2="37" x2="113.359375"></line><text x="5" y="52" fill="white" class="classText"><tspan x="5">equals()</tspan></text></g><g id="classid-Class08-7" class="classGroup" transform="translate(448.0234375,226 )"><rect x="0" y="0" width="44.875" height="30" class=" "></rect><text y="15" x="0"><tspan class="title" x="5">Class08</tspan></text><line x1="0" y1="21" y2="21" x2="44.875"></line><text x="5" y="31" fill="white" class="classText"></text><line x1="0" y1="26" y2="26" x2="44.875"></line><text x="5" y="41" fill="white" class="classText"></text></g><g id="classid-Class09-8" class="classGroup" transform="translate(330.28125,19 )"><rect x="0" y="0" width="44.875" height="30" class=" "></rect><text y="15" x="0"><tspan class="title" x="5">Class09</tspan></text><line x1="0" y1="21" y2="21" x2="44.875"></line><text x="5" y="31" fill="white" class="classText"></text><line x1="0" y1="26" y2="26" x2="44.875"></line><text x="5" y="41" fill="white" class="classText"></text></g><g id="classid-C2-9" class="classGroup" transform="translate(396.21484375,306 )"><rect x="0" y="0" width="22.125" height="30" class=" "></rect><text y="15" x="0"><tspan class="title" x="5">C2</tspan></text><line x1="0" y1="21" y2="21" x2="22.125"></line><text x="5" y="31" fill="white" class="classText"></text><line x1="0" y1="26" y2="26" x2="22.125"></line><text x="5" y="41" fill="white" class="classText"></text></g><g id="classid-C3-10" class="classGroup" transform="translate(341.65625,132 )"><rect x="0" y="0" width="22.125" height="30" class=" "></rect><text y="15" x="0"><tspan class="title" x="5">C3</tspan></text><line x1="0" y1="21" y2="21" x2="22.125"></line><text x="5" y="31" fill="white" class="classText"></text><line x1="0" y1="26" y2="26" x2="22.125"></line><text x="5" y="41" fill="white" class="classText"></text></g><path d="M40.953125,68L40.953125,72.16666666666667C40.953125,76.33333333333333,40.953125,84.66666666666667,40.953125,95.33333333333333C40.953125,106,40.953125,119,40.953125,125.5L40.953125,132" id="edge0" class="relation" marker-start="url(#extensionStart)"></path><g class="classLabel"><rect class="box" x="28.609375" y="88.5" width="24.734375" height="16"></rect><text class="label" x="40.953125" y="100" fill="red" text-anchor="middle">Cool</text></g><path d="M154.34375,49L154.34375,56.333333333333336C154.34375,63.666666666666664,154.34375,78.33333333333333,154.34375,92.16666666666667C154.34375,106,154.34375,119,154.34375,125.5L154.34375,132" id="edge1" class="relation" marker-start="url(#compositionStart)"></path><path d="M249.21875,49L249.21875,56.333333333333336C249.21875,63.666666666666664,249.21875,78.33333333333333,249.21875,92.16666666666667C249.21875,106,249.21875,119,249.21875,125.5L249.21875,132" id="edge2" class="relation" marker-start="url(#aggregationStart)"></path><path d="M470.4609375,176L470.4609375,180.16666666666666C470.4609375,184.33333333333334,470.4609375,192.66666666666666,470.4609375,201C470.4609375,209.33333333333334,470.4609375,217.66666666666666,470.4609375,221.83333333333334L470.4609375,226" id="edge3" class="relation dashed-line"></path><path d="M341.00794491525426,49L335.28266242937855,56.333333333333336C329.55737994350284,63.666666666666664,318.1068149717514,78.33333333333333,312.3815324858757,94.66666666666667C306.65625,111,306.65625,129,306.65625,147C306.65625,165,306.65625,183,306.65625,198.66666666666666C306.65625,214.33333333333334,306.65625,227.66666666666666,306.65625,241C306.65625,254.33333333333334,306.65625,267.6666666666667,321.5826822916667,280.26705229240264C336.5091145833333,292.86743791813865,366.3619791666667,304.7348758362773,381.2884114583333,310.6685947953466L396.21484375,316.60231375441595" id="edge4" class="relation" marker-end="url(#dependencyEnd)"></path><g class="classLabel"><rect class="box" x="276.703125" y="195.765625" width="60.234375" height="16.015625"></rect><text class="label" x="306.65625" y="207.27708053136234" fill="red" text-anchor="middle">Where am i?</text></g><path d="M352.71875,49L352.71875,56.333333333333336C352.71875,63.666666666666664,352.71875,78.33333333333333,352.71875,92.16666666666667C352.71875,106,352.71875,119,352.71875,125.5L352.71875,132" id="edge5" class="relation" marker-end="url(#compositionEnd)"></path><path d="M375.15625,45.2433149757813L391.0403645833333,53.20276247981775C406.9244791666667,61.162209983854204,438.6927083333333,77.08110499192709,454.5768229166667,89.20721916263021C470.4609375,101.33333333333333,470.4609375,109.66666666666667,470.4609375,113.83333333333333L470.4609375,118" id="edge6" class="relation" marker-end="url(#extensionEnd)"></path><path d="M470.4609375,256L470.4609375,260.1666666666667C470.4609375,264.3333333333333,470.4609375,272.6666666666667,461.7740885416667,282.3327666151468C453.0872395833333,291.998866563627,435.7135416666667,302.997733127254,427.0266927083333,308.49716640906746L418.33984375,313.996599690881" id="edge7" class="relation" marker-start="url(#dependencyStart)" marker-end="url(#dependencyEnd)"></path><g class="classLabel"><rect class="box" x="430.03125" y="279.296875" width="49.921875" height="16.015625"></rect><text class="label" x="454.961858674027" y="290.81209070652017" fill="red" text-anchor="middle">Cool label</text></g></svg>