<svg id="mermaid" width="100%" xmlns="http://www.w3.org/2000/svg" height="465" style="max-width: 369.671875px;" viewBox="0 0 369.671875 465"><style>#mermaid{font-family:"trebuchet ms",verdana,arial,sans-serif;font-size:16px;fill:#333;}#mermaid .error-icon{fill:#552222;}#mermaid .error-text{fill:#552222;stroke:#552222;}#mermaid .edge-thickness-normal{stroke-width:2px;}#mermaid .edge-thickness-thick{stroke-width:3.5px;}#mermaid .edge-pattern-solid{stroke-dasharray:0;}#mermaid .edge-pattern-dashed{stroke-dasharray:3;}#mermaid .edge-pattern-dotted{stroke-dasharray:2;}#mermaid .marker{fill:#333333;stroke:#333333;}#mermaid .marker.cross{stroke:#333333;}#mermaid svg{font-family:"trebuchet ms",verdana,arial,sans-serif;font-size:16px;}#mermaid .entityBox{fill:#ECECFF;stroke:#9370DB;}#mermaid .attributeBoxOdd{fill:#ffffff;stroke:#9370DB;}#mermaid .attributeBoxEven{fill:#f2f2f2;stroke:#9370DB;}#mermaid .relationshipLabelBox{fill:hsl(80,100%,96.2745098039%);opacity:0.7;background-color:hsl(80,100%,96.2745098039%);}#mermaid .relationshipLabelBox rect{opacity:0.5;}#mermaid .relationshipLine{stroke:#333333;}#mermaid:root{--mermaid-font-family:"trebuchet ms",verdana,arial,sans-serif;}#mermaid er{fill:apa;}</style><g></g><defs><marker id="ONLY_ONE_START" refX="0" refY="9" markerWidth="18" markerHeight="18" orient="auto"><path stroke="gray" fill="none" d="M9,0 L9,18 M15,0 L15,18"></path></marker></defs><defs><marker id="ONLY_ONE_END" refX="18" refY="9" markerWidth="18" markerHeight="18" orient="auto"><path stroke="gray" fill="none" d="M3,0 L3,18 M9,0 L9,18"></path></marker></defs><defs><marker id="ZERO_OR_ONE_START" refX="0" refY="9" markerWidth="30" markerHeight="18" orient="auto"><circle stroke="gray" fill="white" cx="21" cy="9" r="6"></circle><path stroke="gray" fill="none" d="M9,0 L9,18"></path></marker></defs><defs><marker id="ZERO_OR_ONE_END" refX="30" refY="9" markerWidth="30" markerHeight="18" orient="auto"><circle stroke="gray" fill="white" cx="9" cy="9" r="6"></circle><path stroke="gray" fill="none" d="M21,0 L21,18"></path></marker></defs><defs><marker id="ONE_OR_MORE_START" refX="18" refY="18" markerWidth="45" markerHeight="36" orient="auto"><path stroke="gray" fill="none" d="M0,18 Q 18,0 36,18 Q 18,36 0,18 M42,9 L42,27"></path></marker></defs><defs><marker id="ONE_OR_MORE_END" refX="27" refY="18" markerWidth="45" markerHeight="36" orient="auto"><path stroke="gray" fill="none" d="M3,9 L3,27 M9,18 Q27,0 45,18 Q27,36 9,18"></path></marker></defs><defs><marker id="ZERO_OR_MORE_START" refX="18" refY="18" markerWidth="57" markerHeight="36" orient="auto"><circle stroke="gray" fill="white" cx="48" cy="18" r="6"></circle><path stroke="gray" fill="none" d="M0,18 Q18,0 36,18 Q18,36 0,18"></path></marker></defs><defs><marker id="ZERO_OR_MORE_END" refX="39" refY="18" markerWidth="57" markerHeight="36" orient="auto"><circle stroke="gray" fill="white" cx="9" cy="18" r="6"></circle><path stroke="gray" fill="none" d="M21,18 Q39,0 57,18 Q39,36 21,18"></path></marker></defs><path class="er relationshipLine" d="M131.38169642857144,95L121.1514136904762,103.33333333333333C110.92113095238096,111.66666666666667,90.46056547619048,128.33333333333334,80.23028273809524,145C70,161.66666666666666,70,178.33333333333334,70,186.66666666666666L70,195" stroke="gray" fill="none" marker-end="url(#ZERO_OR_MORE_END)" marker-start="url(#ONLY_ONE_START)"></path><path class="er relationshipLine" d="M70,270L70,278.3333333333333C70,286.6666666666667,70,303.3333333333333,70,320C70,336.6666666666667,70,353.3333333333333,70,361.6666666666667L70,370" stroke="gray" fill="none" marker-end="url(#ONE_OR_MORE_END)" marker-start="url(#ONLY_ONE_START)"></path><path class="er relationshipLine" d="M223.45424107142856,95L233.68452380952377,103.33333333333333C243.91480654761904,111.66666666666667,264.3753720238095,128.33333333333334,274.60565476190476,145C284.8359375,161.66666666666666,284.8359375,178.33333333333334,284.8359375,186.66666666666666L284.8359375,195" stroke="gray" fill="none" stroke-dasharray="8,8" marker-end="url(#ONE_OR_MORE_END)" marker-start="url(#ONE_OR_MORE_START)"></path><g id="CUSTOMER" transform="translate(127.41796875,20 )"><rect class="er entityBox" fill="honeydew" fill-opacity="100%" stroke="gray" x="0" y="0" width="100" height="75"></rect><text class="er entityLabel" id="entity-CUSTOMER" x="0" y="0" dominant-baseline="middle" text-anchor="middle" style="font-family: &quot;trebuchet ms&quot;, verdana, arial, sans-serif;; font-size: 12px" transform="translate(50,37.5)">CUSTOMER</text></g><g id="ORDER" transform="translate(20,195 )"><rect class="er entityBox" fill="honeydew" fill-opacity="100%" stroke="gray" x="0" y="0" width="100" height="75"></rect><text class="er entityLabel" id="entity-ORDER" x="0" y="0" dominant-baseline="middle" text-anchor="middle" style="font-family: &quot;trebuchet ms&quot;, verdana, arial, sans-serif;; font-size: 12px" transform="translate(50,37.5)">ORDER</text></g><g id="LINE-ITEM" transform="translate(20,370 )"><rect class="er entityBox" fill="honeydew" fill-opacity="100%" stroke="gray" x="0" y="0" width="100" height="75"></rect><text class="er entityLabel" id="entity-LINE-ITEM" x="0" y="0" dominant-baseline="middle" text-anchor="middle" style="font-family: &quot;trebuchet ms&quot;, verdana, arial, sans-serif;; font-size: 12px" transform="translate(50,37.5)">LINE-ITEM</text></g><g id="DELIVERY-ADDRESS" transform="translate(220,195 )"><rect class="er entityBox" fill="honeydew" fill-opacity="100%" stroke="gray" x="0" y="0" width="129.671875" height="75"></rect><text class="er entityLabel" id="entity-DELIVERY-ADDRESS" x="0" y="0" dominant-baseline="middle" text-anchor="middle" style="font-family: &quot;trebuchet ms&quot;, verdana, arial, sans-serif;; font-size: 12px" transform="translate(64.8359375,37.5)">DELIVERY-ADDRESS</text></g><rect class="er relationshipLabelBox" x="68.985107421875" y="129.8264923095703" width="34.03125" height="14.015625" fill="white" fill-opacity="85%"></rect><text class="er relationshipLabel" id="rel1" x="86.000732421875" y="136.8343048095703" text-anchor="middle" dominant-baseline="middle" style="font-family: &quot;trebuchet ms&quot;, verdana, arial, sans-serif;; font-size: 12px">places</text><rect class="er relationshipLabelBox" x="47.5078125" y="312.9921875" width="44.984375" height="14.015625" fill="white" fill-opacity="85%"></rect><text class="er relationshipLabel" id="rel2" x="70" y="320" text-anchor="middle" dominant-baseline="middle" style="font-family: &quot;trebuchet ms&quot;, verdana, arial, sans-serif;; font-size: 12px">contains</text><rect class="er relationshipLabelBox" x="257.350830078125" y="129.82650756835938" width="22.96875" height="14.015625" fill="white" fill-opacity="85%"></rect><text class="er relationshipLabel" id="rel3" x="268.835205078125" y="136.83432006835938" text-anchor="middle" dominant-baseline="middle" style="font-family: &quot;trebuchet ms&quot;, verdana, arial, sans-serif;; font-size: 12px">uses</text></svg>