<svg id="mermaid" width="100%" xmlns="http://www.w3.org/2000/svg" height="450" style="max-width: 784px;" viewBox="0 0 784 450"><style>#mermaid{font-family:"trebuchet ms",verdana,arial,sans-serif;font-size:16px;fill:#333;}#mermaid .error-icon{fill:#552222;}#mermaid .error-text{fill:#552222;stroke:#552222;}#mermaid .edge-thickness-normal{stroke-width:2px;}#mermaid .edge-thickness-thick{stroke-width:3.5px;}#mermaid .edge-pattern-solid{stroke-dasharray:0;}#mermaid .edge-pattern-dashed{stroke-dasharray:3;}#mermaid .edge-pattern-dotted{stroke-dasharray:2;}#mermaid .marker{fill:#333333;stroke:#333333;}#mermaid .marker.cross{stroke:#333333;}#mermaid svg{font-family:"trebuchet ms",verdana,arial,sans-serif;font-size:16px;}#mermaid .pieTitleText{text-anchor:middle;font-size:25px;fill:black;font-family:"trebuchet ms",verdana,arial,sans-serif;}#mermaid .slice{font-family:"trebuchet ms",verdana,arial,sans-serif;fill:#333;}#mermaid .legend text{fill:black;font-family:"trebuchet ms",verdana,arial,sans-serif;font-size:17px;}#mermaid:root{--mermaid-font-family:"trebuchet ms",verdana,arial,sans-serif;}#mermaid pie{fill:apa;}</style><g></g><g transform="translate(392,225)"><path d="M42.237228123611345,180.11389885412513A185,185,0,0,1,-141.76816525308922,-118.85616231720081L0,0Z" fill="#66c2a5" stroke="black" style="stroke-width: 2px; opacity: 0.7;"></path><path d="M1.1327982892113017e-14,-185A185,185,0,0,1,42.237228123611345,180.11389885412513L0,0Z" fill="#fc8d62" stroke="black" style="stroke-width: 2px; opacity: 0.7;"></path><path d="M-141.76816525308922,-118.85616231720081A185,185,0,0,1,-53.0490527880011,-177.23091716259856L0,0Z" fill="#8da0cb" stroke="black" style="stroke-width: 2px; opacity: 0.7;"></path><path d="M-53.0490527880011,-177.23091716259856A185,185,0,0,1,1.303290589681841e-13,-185L0,0Z" fill="#e78ac3" stroke="black" style="stroke-width: 2px; opacity: 0.7;"></path><text transform="translate(-78.77559303277985,48.483563630717654)" class="slice" style="text-anchor: middle; font-size: 17px;">40%</text><text transform="translate(91.88720754817638,-10.629726666210965)" class="slice" style="text-anchor: middle; font-size: 17px;">46%</text><text transform="translate(-50.843731452688694,-77.27331345274948)" class="slice" style="text-anchor: middle; font-size: 17px;">9%</text><text transform="translate(-13.40373233897587,-91.52371255245873)" class="slice" style="text-anchor: middle; font-size: 17px;">5%</text><text x="0" y="-200" class="pieTitleText">Key elements in Product X</text><g class="legend" transform="translate(216,-44)"><rect width="18" height="18" style="fill: rgb(102, 194, 165); stroke: rgb(102, 194, 165);"></rect><text x="22" y="14">Calcium</text></g><g class="legend" transform="translate(216,-22)"><rect width="18" height="18" style="fill: rgb(252, 141, 98); stroke: rgb(252, 141, 98);"></rect><text x="22" y="14">Potassium</text></g><g class="legend" transform="translate(216,0)"><rect width="18" height="18" style="fill: rgb(141, 160, 203); stroke: rgb(141, 160, 203);"></rect><text x="22" y="14">Magnesium</text></g><g class="legend" transform="translate(216,22)"><rect width="18" height="18" style="fill: rgb(231, 138, 195); stroke: rgb(231, 138, 195);"></rect><text x="22" y="14">Iron</text></g></g></svg>